<?xml version="1.0" encoding="utf-8"?>
<!-- Generator: Adobe Illustrator 18.1.0, SVG Export Plug-In . SVG Version: 6.00 Build 0)  -->
<svg version="1.1" id="Layer_1" xmlns="http://www.w3.org/2000/svg" xmlns:xlink="http://www.w3.org/1999/xlink" x="0px" y="0px"
	 viewBox="0 0 481.7 52.8" enable-background="new 0 0 481.7 52.8" xml:space="preserve">
<g>
	<path fill="#FFFFFF" d="M5.1,7.7H31v3.8H9.2v12.9h19.5v3.7H9.2v15.7H5.1V7.7z"/>
	<path fill="#FFFFFF" d="M39.2,7.7h4.1v36h-4.1V7.7z"/>
	<path fill="#FFFFFF" d="M63.4,11.5H51.3V7.7h28.3v3.8H67.5v32.3h-4.1V11.5z"/>
	<path fill="#FFFFFF" d="M87.2,7.7H91l22.7,28.9V7.7h4v36h-3.2L91.2,14.2v29.6h-4V7.7z"/>
	<path fill="#FFFFFF" d="M127.9,7.7H154v3.7h-22v12.4h19.7v3.7H132v12.7h22.2v3.7h-26.3V7.7z"/>
	<path fill="#FFFFFF" d="M174.8,44.3c-2.9,0-5.5-0.5-7.9-1.4c-2.4-0.9-4.7-2.4-6.8-4.4l2.5-3c1.9,1.7,3.8,3,5.7,3.8
		c1.9,0.8,4.1,1.3,6.6,1.3c2.4,0,4.4-0.6,5.8-1.7c1.5-1.1,2.2-2.6,2.2-4.4v-0.1c0-0.8-0.1-1.6-0.4-2.2c-0.3-0.7-0.8-1.3-1.4-1.8
		c-0.7-0.5-1.6-1-2.9-1.5c-1.2-0.4-2.8-0.9-4.7-1.3c-2.1-0.4-3.9-1-5.4-1.5c-1.5-0.6-2.8-1.3-3.8-2.1c-1-0.8-1.7-1.8-2.2-2.9
		c-0.5-1.1-0.7-2.4-0.7-3.9V17c0-1.4,0.3-2.7,0.9-3.9c0.6-1.2,1.4-2.2,2.5-3.1c1.1-0.9,2.3-1.6,3.8-2.1c1.4-0.5,3-0.7,4.7-0.7
		c2.6,0,5,0.4,6.9,1.1c2,0.7,3.9,1.8,5.7,3.3l-2.4,3.1c-1.7-1.4-3.4-2.4-5.1-3c-1.7-0.6-3.5-0.9-5.3-0.9c-2.4,0-4.2,0.6-5.6,1.7
		c-1.4,1.1-2.1,2.5-2.1,4.1v0.1c0,0.9,0.1,1.6,0.4,2.3c0.3,0.7,0.8,1.3,1.5,1.9c0.7,0.6,1.7,1.1,3,1.5c1.3,0.5,2.9,0.9,4.9,1.3
		c4,0.9,7,2.1,8.9,3.7c1.9,1.6,2.9,3.7,2.9,6.5v0.1c0,1.5-0.3,2.9-0.9,4.2c-0.6,1.3-1.5,2.3-2.5,3.2c-1.1,0.9-2.4,1.6-3.9,2.1
		C178.3,44,176.6,44.3,174.8,44.3z"/>
	<path fill="#FFFFFF" d="M207.8,44.3c-2.9,0-5.5-0.5-7.9-1.4c-2.4-0.9-4.7-2.4-6.8-4.4l2.5-3c1.9,1.7,3.8,3,5.7,3.8
		c1.9,0.8,4.1,1.3,6.6,1.3c2.4,0,4.4-0.6,5.8-1.7c1.5-1.1,2.2-2.6,2.2-4.4v-0.1c0-0.8-0.1-1.6-0.4-2.2c-0.3-0.7-0.8-1.3-1.4-1.8
		c-0.7-0.5-1.6-1-2.9-1.5c-1.2-0.4-2.8-0.9-4.7-1.3c-2.1-0.4-3.9-1-5.4-1.5c-1.5-0.6-2.8-1.3-3.8-2.1c-1-0.8-1.7-1.8-2.2-2.9
		c-0.5-1.1-0.7-2.4-0.7-3.9V17c0-1.4,0.3-2.7,0.9-3.9c0.6-1.2,1.4-2.2,2.5-3.1c1.1-0.9,2.3-1.6,3.8-2.1c1.4-0.5,3-0.7,4.7-0.7
		c2.6,0,5,0.4,6.9,1.1c2,0.7,3.9,1.8,5.7,3.3l-2.4,3.1c-1.7-1.4-3.4-2.4-5.1-3c-1.7-0.6-3.5-0.9-5.3-0.9c-2.4,0-4.2,0.6-5.6,1.7
		c-1.4,1.1-2.1,2.5-2.1,4.1v0.1c0,0.9,0.1,1.6,0.4,2.3c0.3,0.7,0.8,1.3,1.5,1.9c0.7,0.6,1.7,1.1,3,1.5c1.3,0.5,2.9,0.9,4.9,1.3
		c4,0.9,7,2.1,8.9,3.7c1.9,1.6,2.9,3.7,2.9,6.5v0.1c0,1.5-0.3,2.9-0.9,4.2c-0.6,1.3-1.5,2.3-2.5,3.2c-1.1,0.9-2.4,1.6-3.9,2.1
		C211.2,44,209.6,44.3,207.8,44.3z"/>
	<path fill="#FFFFFF" d="M235.2,16.5h-10.8V7.7H256v8.8h-10.8v27.3h-10V16.5z"/>
	<path fill="#FFFFFF" d="M260.4,7.7h17c2.8,0,5.1,0.3,7.1,1c1.9,0.7,3.5,1.6,4.7,2.9c2.1,2.1,3.2,4.9,3.2,8.4v0.1
		c0,2.8-0.7,5.1-2,6.9c-1.3,1.8-3.1,3.2-5.4,4.2l8.6,12.6H282l-7.3-10.9h-0.1h-4.3v10.9h-10V7.7z M277,25c1.7,0,3-0.4,4-1.2
		c0.9-0.8,1.4-1.8,1.4-3.1v-0.1c0-1.4-0.5-2.5-1.4-3.2c-1-0.7-2.3-1.1-4-1.1h-6.5V25H277z"/>
	<path fill="#FFFFFF" d="M309.9,7.5h9.6l15.3,36.3h-10.7l-2.6-6.4h-13.9l-2.6,6.4h-10.5L309.9,7.5z M318.7,29.6l-4-10.2l-4.1,10.2
		H318.7z"/>
	<path fill="#FFFFFF" d="M355.7,44.5c-2.6,0-5-0.5-7.3-1.4s-4.2-2.2-5.9-3.9c-1.7-1.7-3-3.6-4-5.9c-1-2.3-1.5-4.8-1.5-7.4v-0.1
		c0-2.6,0.5-5.1,1.4-7.3c1-2.3,2.3-4.3,4-6c1.7-1.7,3.7-3,6-4c2.3-1,4.8-1.4,7.6-1.4c1.9,0,3.5,0.2,5,0.5c1.5,0.4,2.9,0.9,4.1,1.5
		s2.4,1.5,3.4,2.4c1,0.9,1.9,1.9,2.7,3l-7.5,5.8c-1-1.3-2.2-2.3-3.4-3.1c-1.2-0.8-2.7-1.1-4.5-1.1c-1.3,0-2.4,0.2-3.5,0.7
		c-1,0.5-1.9,1.2-2.7,2c-0.8,0.9-1.3,1.9-1.8,3c-0.4,1.2-0.6,2.4-0.6,3.7v0.1c0,1.3,0.2,2.6,0.6,3.8c0.4,1.2,1,2.2,1.8,3.1
		c0.8,0.9,1.7,1.5,2.7,2c1,0.5,2.2,0.7,3.5,0.7c0.9,0,1.8-0.1,2.5-0.3s1.5-0.5,2.1-0.9c0.6-0.4,1.2-0.9,1.8-1.4s1.1-1.1,1.7-1.8
		l7.5,5.4c-0.9,1.2-1.8,2.2-2.8,3.2c-1,1-2.2,1.9-3.5,2.6c-1.3,0.7-2.7,1.3-4.3,1.7C359.5,44.3,357.7,44.5,355.7,44.5z"/>
	<path fill="#FFFFFF" d="M376,7.7h10v14.6l12.4-14.6h11.8l-13.6,15.5l14.1,20.5h-12l-9.1-13.4l-3.7,4.1v9.3h-10V7.7z"/>
	<path fill="#FFFFFF" d="M413.6,7.7h28.9v8.5h-19.1v5.5h17.3v7.9h-17.3v5.7h19.4v8.5h-29.2V7.7z"/>
	<path fill="#FFFFFF" d="M447.9,7.7h17c2.8,0,5.1,0.3,7.1,1c1.9,0.7,3.5,1.6,4.7,2.9c2.1,2.1,3.2,4.9,3.2,8.4v0.1
		c0,2.8-0.7,5.1-2,6.9c-1.3,1.8-3.1,3.2-5.4,4.2l8.6,12.6h-11.5l-7.3-10.9h-0.1h-4.3v10.9h-10V7.7z M464.5,25c1.7,0,3-0.4,4-1.2
		s1.4-1.8,1.4-3.1v-0.1c0-1.4-0.5-2.5-1.4-3.2c-1-0.7-2.3-1.1-4-1.1h-6.5V25H464.5z"/>
</g>
</svg>
