<?xml version="1.0" encoding="utf-8"?>
<!-- Generator: Adobe Illustrator 18.1.0, SVG Export Plug-In . SVG Version: 6.00 Build 0)  -->
<svg version="1.1" id="Layer_1" xmlns="http://www.w3.org/2000/svg" xmlns:xlink="http://www.w3.org/1999/xlink" x="0px" y="0px"
	 viewBox="0 0 38.2 32.7" enable-background="new 0 0 38.2 32.7" xml:space="preserve">
<g>
	<path fill-rule="evenodd" clip-rule="evenodd" fill="#F5F6F6" d="M7.4,1.3L7,9.3H5.2L5,1.1H3.7L3.5,9.3H2l-0.6-8H0v8.2l0,0
		c0.1,2.6,1.4,2.9,3.1,3.6h0v5.5v0v13.4c1.5,1.5,2.7,0,2.7,0l0-13.6h0v-5.3c0,0,2.9-1,3-3.6h0l0-8.2H7.4z"/>
	<path fill-rule="evenodd" clip-rule="evenodd" fill="#F5F6F6" d="M17,0.7h-1.9v31h3.7V15.3h3.2c1.9-8.1-3.2-14.6-3.2-14.6H17z"/>
	<path fill-rule="evenodd" clip-rule="evenodd" fill="#F5F6F6" d="M33.2,0c-2.8,0-5,3.4-5,7.5c0,3.3,1.4,6.1,3.4,7.1v17H35V14.5
		c1.9-1.1,3.3-3.8,3.3-7C38.2,3.4,36,0,33.2,0z"/>
</g>
</svg>
